<?xml version="1.0" standalone="no"?>
<!DOCTYPE svg PUBLIC "-//W3C//DTD SVG 20010904//EN"
 "http://www.w3.org/TR/2001/REC-SVG-20010904/DTD/svg10.dtd">
<svg version="1.0" xmlns="http://www.w3.org/2000/svg"
 width="150.000000pt" height="150.000000pt" viewBox="0 0 150.000000 150.000000"
 preserveAspectRatio="xMidYMid meet">

<g transform="translate(0.000000,150.000000) scale(0.100000,-0.100000)"
fill="#000000" stroke="none">
<path d="M0 750 l0 -750 750 0 750 0 0 750 0 750 -750 0 -750 0 0 -750z m370
125 c-29 -30 -40 -35 -81 -35 -67 0 -99 -27 -99 -85 0 -59 14 -65 149 -65
l111 0 0 -35 0 -35 -145 0 c-181 0 -185 2 -185 115 0 137 40 175 189 175 l95
0 -34 -35z m369 9 c26 -34 26 -54 0 -88 -20 -26 -22 -26 -147 -26 l-127 0 -1
25 -2 25 109 0 c66 0 109 4 109 10 0 6 -61 10 -162 10 l-162 0 34 35 34 35
147 0 c147 0 148 0 168 -26z m321 -9 l-34 -35 -128 0 c-107 0 -128 2 -128 15
0 8 9 24 20 35 18 18 33 20 162 20 l142 0 -34 -35z m296 10 c25 -25 26 -30 22
-126 -4 -133 -10 -139 -150 -139 -92 0 -101 2 -123 25 -22 21 -25 33 -25 100
l0 75 39 0 39 0 0 -56 c-1 -38 3 -59 13 -65 21 -13 103 -11 117 3 7 7 12 35
12 63 0 28 -5 56 -12 63 -8 8 -51 12 -127 12 l-115 0 34 35 34 35 108 0 c103
0 110 -1 134 -25z m-376 -90 c-22 -23 -30 -25 -117 -25 -93 0 -93 0 -93 25 l0
25 117 0 116 0 -23 -25z m-440 -182 l0 -137 -32 -33 c-18 -18 -34 -33 -37 -33
-5 0 -7 292 -3 328 1 7 17 12 37 12 l35 0 0 -137z m178 94 l42 -43 -23 -22
-23 -22 -64 65 -64 65 45 0 c40 0 50 -5 87 -43z m342 -52 l0 -35 -119 0 c-105
0 -121 2 -145 21 -14 11 -26 27 -26 35 0 11 26 14 145 14 l145 0 0 -35z"/>
</g>
</svg>
